<svg width="0" height="0" class="hidden">
    <symbol xmlns="http://www.w3.org/2000/svg" viewBox="0 0 455.73 455.73" id="facebook">
        <path d="M0 0v455.73h242.704V279.691h-59.33v-71.864h59.33v-60.353c0-43.893 35.582-79.475 79.475-79.475h62.025v64.622h-44.382c-13.947 0-25.254 11.307-25.254 25.254v49.953h68.521l-9.47 71.864h-59.051V455.73H455.73V0H0z" fill="#3a559f"></path>
    </symbol>
    <symbol xmlns="http://www.w3.org/2000/svg" viewBox="0 0 455.73 455.73" id="instagram">
        <path d="M227.86 182.55c-24.98 0-45.32 20.33-45.32 45.31 0 24.99 20.34 45.33 45.32 45.33 24.99 0 45.32-20.34 45.32-45.33 0-24.98-20.33-45.31-45.32-45.31zm0 0c-24.98 0-45.32 20.33-45.32 45.31 0 24.99 20.34 45.33 45.32 45.33 24.99 0 45.32-20.34 45.32-45.33 0-24.98-20.33-45.31-45.32-45.31zm75.5-73.89H152.37c-24.1 0-43.71 19.61-43.71 43.71v150.99c0 24.1 19.61 43.71 43.71 43.71h150.99c24.1 0 43.71-19.61 43.71-43.71V152.37c0-24.1-19.61-43.71-43.71-43.71zm-75.5 197.69c-43.27 0-78.48-35.21-78.48-78.49 0-43.27 35.21-78.48 78.48-78.48 43.28 0 78.49 35.21 78.49 78.48 0 43.28-35.21 78.49-78.49 78.49zm81.01-140.74c-10.24 0-18.57-8.33-18.57-18.57s8.33-18.57 18.57-18.57 18.57 8.33 18.57 18.57-8.33 18.57-18.57 18.57zm-81.01 16.94c-24.98 0-45.32 20.33-45.32 45.31 0 24.99 20.34 45.33 45.32 45.33 24.99 0 45.32-20.34 45.32-45.33 0-24.98-20.33-45.31-45.32-45.31zm75.5-73.89H152.37c-24.1 0-43.71 19.61-43.71 43.71v150.99c0 24.1 19.61 43.71 43.71 43.71h150.99c24.1 0 43.71-19.61 43.71-43.71V152.37c0-24.1-19.61-43.71-43.71-43.71zm-75.5 197.69c-43.27 0-78.48-35.21-78.48-78.49 0-43.27 35.21-78.48 78.48-78.48 43.28 0 78.49 35.21 78.49 78.48 0 43.28-35.21 78.49-78.49 78.49zm81.01-140.74c-10.24 0-18.57-8.33-18.57-18.57s8.33-18.57 18.57-18.57 18.57 8.33 18.57 18.57-8.33 18.57-18.57 18.57zm-81.01 16.94c-24.98 0-45.32 20.33-45.32 45.31 0 24.99 20.34 45.33 45.32 45.33 24.99 0 45.32-20.34 45.32-45.33 0-24.98-20.33-45.31-45.32-45.31zM0 0v455.73h455.73V0H0zm380.23 303.36c0 42.39-34.48 76.87-76.87 76.87H152.37c-42.39 0-76.87-34.48-76.87-76.87V152.37c0-42.39 34.48-76.87 76.87-76.87h150.99c42.39 0 76.87 34.48 76.87 76.87v150.99zm-76.87-194.7H152.37c-24.1 0-43.71 19.61-43.71 43.71v150.99c0 24.1 19.61 43.71 43.71 43.71h150.99c24.1 0 43.71-19.61 43.71-43.71V152.37c0-24.1-19.61-43.71-43.71-43.71zm-75.5 197.69c-43.27 0-78.48-35.21-78.48-78.49 0-43.27 35.21-78.48 78.48-78.48 43.28 0 78.49 35.21 78.49 78.48 0 43.28-35.21 78.49-78.49 78.49zm81.01-140.74c-10.24 0-18.57-8.33-18.57-18.57s8.33-18.57 18.57-18.57 18.57 8.33 18.57 18.57-8.33 18.57-18.57 18.57zm-81.01 16.94c-24.98 0-45.32 20.33-45.32 45.31 0 24.99 20.34 45.33 45.32 45.33 24.99 0 45.32-20.34 45.32-45.33 0-24.98-20.33-45.31-45.32-45.31zm0 0c-24.98 0-45.32 20.33-45.32 45.31 0 24.99 20.34 45.33 45.32 45.33 24.99 0 45.32-20.34 45.32-45.33 0-24.98-20.33-45.31-45.32-45.31zm0 0c-24.98 0-45.32 20.33-45.32 45.31 0 24.99 20.34 45.33 45.32 45.33 24.99 0 45.32-20.34 45.32-45.33 0-24.98-20.33-45.31-45.32-45.31zm75.5-73.89H152.37c-24.1 0-43.71 19.61-43.71 43.71v150.99c0 24.1 19.61 43.71 43.71 43.71h150.99c24.1 0 43.71-19.61 43.71-43.71V152.37c0-24.1-19.61-43.71-43.71-43.71zm-75.5 197.69c-43.27 0-78.48-35.21-78.48-78.49 0-43.27 35.21-78.48 78.48-78.48 43.28 0 78.49 35.21 78.49 78.48 0 43.28-35.21 78.49-78.49 78.49zm81.01-140.74c-10.24 0-18.57-8.33-18.57-18.57s8.33-18.57 18.57-18.57 18.57 8.33 18.57 18.57-8.33 18.57-18.57 18.57zm-81.01 16.94c-24.98 0-45.32 20.33-45.32 45.31 0 24.99 20.34 45.33 45.32 45.33 24.99 0 45.32-20.34 45.32-45.33 0-24.98-20.33-45.31-45.32-45.31zm0 0c-24.98 0-45.32 20.33-45.32 45.31 0 24.99 20.34 45.33 45.32 45.33 24.99 0 45.32-20.34 45.32-45.33 0-24.98-20.33-45.31-45.32-45.31zm0 0c-24.98 0-45.32 20.33-45.32 45.31 0 24.99 20.34 45.33 45.32 45.33 24.99 0 45.32-20.34 45.32-45.33 0-24.98-20.33-45.31-45.32-45.31zm75.5-73.89H152.37c-24.1 0-43.71 19.61-43.71 43.71v150.99c0 24.1 19.61 43.71 43.71 43.71h150.99c24.1 0 43.71-19.61 43.71-43.71V152.37c0-24.1-19.61-43.71-43.71-43.71zm-75.5 197.69c-43.27 0-78.48-35.21-78.48-78.49 0-43.27 35.21-78.48 78.48-78.48 43.28 0 78.49 35.21 78.49 78.48 0 43.28-35.21 78.49-78.49 78.49zm81.01-140.74c-10.24 0-18.57-8.33-18.57-18.57s8.33-18.57 18.57-18.57 18.57 8.33 18.57 18.57-8.33 18.57-18.57 18.57zm-81.01 16.94c-24.98 0-45.32 20.33-45.32 45.31 0 24.99 20.34 45.33 45.32 45.33 24.99 0 45.32-20.34 45.32-45.33 0-24.98-20.33-45.31-45.32-45.31z"
              fill="#c536a4"></path>
    </symbol>
    <symbol xmlns="http://www.w3.org/2000/svg" viewBox="0 0 455.731 455.731" id="twitter">
        <path fill="#50abf1" d="M0 0h455.731v455.731H0z"></path>
        <path d="M60.377 337.822c30.33 19.236 66.308 30.368 104.875 30.368 108.349 0 196.18-87.841 196.18-196.18 0-2.705-.057-5.39-.161-8.067 3.919-3.084 28.157-22.511 34.098-35 0 0-19.683 8.18-38.947 10.107-.038 0-.085.009-.123.009 0 0 .038-.019.104-.066 1.775-1.186 26.591-18.079 29.951-38.207 0 0-13.922 7.431-33.415 13.932a223.578 223.578 0 0 1-10.088 3.103c-12.565-13.41-30.425-21.78-50.25-21.78-38.027 0-68.841 30.805-68.841 68.803a68.67 68.67 0 0 0 1.784 15.592c-5.314-.218-86.237-4.755-141.289-71.423 0 0-32.902 44.917 19.607 91.105 0 0-15.962-.636-29.733-8.864 0 0-5.058 54.416 54.407 68.329 0 0-11.701 4.432-30.368 1.272 0 0 10.439 43.968 63.271 48.077 0 0-41.777 37.74-101.081 28.885l.019.005z"
              fill="#fff"></path>
    </symbol>
    <symbol xmlns="http://www.w3.org/2000/svg" viewBox="0 0 455.731 455.731" id="youtube">
        <path fill="#dc472e" d="M0 0h455.731v455.731H0z"></path>
        <path d="M263.259 291.734c-.01-1.7-.51-3.47-1.14-5.06-.84-2.09-2.64-3.13-4.9-3.35-2.65-.26-4.77.81-6.69 2.51-.77.67-1.12 1.67-1.12 1.67l.04 53.97v1.33s.46.62.53.7c1.56 1.69 3.38 3.03 5.71 3.51 3.84.79 6.55-.81 7.3-4.37.19-.89.3-1.81.3-2.72.02-16.07.05-32.13-.03-48.19zm0 0c-.01-1.7-.51-3.47-1.14-5.06-.84-2.09-2.64-3.13-4.9-3.35-2.65-.26-4.77.81-6.69 2.51-.77.67-1.12 1.67-1.12 1.67l.04 53.97v1.33s.46.62.53.7c1.56 1.69 3.38 3.03 5.71 3.51 3.84.79 6.55-.81 7.3-4.37.19-.89.3-1.81.3-2.72.02-16.07.05-32.13-.03-48.19zm60.43-81.39a4468.85 4468.85 0 0 0-191.65 0c-22.16.47-39.88 18.59-39.88 40.76v99.76c0 22.18 17.72 40.3 39.88 40.77a4468.85 4468.85 0 0 0 191.65 0c22.17-.47 39.89-18.59 39.89-40.77v-99.76c0-22.169-17.72-40.29-39.89-40.76zm-172.89 149.611h-18.42v-104.13h-19.07v-17.42h56.6v17.38h-19.11v104.17zm65.92-43.221v43.23h-16.31v-9.88c-.59.63-.92.97-1.23 1.32-3.51 3.96-7.49 7.26-12.57 9.01-2.48.85-5.03 1.14-7.64.69-3.56-.59-5.95-2.64-7.39-5.88-1.34-2.99-1.68-6.19-1.69-9.41-.04-11.9-.02-74.88-.02-75.49h16.27c.03.55.09 45.76.1 67.81 0 1.2.01 2.43.25 3.6.6 2.96 2.87 4.23 5.72 3.19 3.28-1.2 5.78-3.46 7.88-6.17.31-.39.31-1.09.31-1.65v-66.88l16.32-.04v46.55zm62.05 34.59c-2.18 6.56-6.98 9.9-13.88 9.83-5.61-.05-10.16-2.28-13.91-6.35-.42-.45-1.58-1.68-1.58-1.68v6.82h-16.34v-121.55h16.34v40.01s.92-1.84 1.76-2.79c2.53-2.83 5.61-5.02 9.41-5.98 6.27-1.57 13.5.37 16.94 7.7 2.03 4.33 2.6 8.95 2.6 13.65.03 16.99.03 33.98.01 50.97-.01 3.18-.34 6.321-1.35 9.37zm60.35-3.419c-2.83 8.29-8.68 12.89-17.26 14.15-5.32.78-10.59.67-15.58-1.59-6.83-3.08-10.7-8.65-12.36-15.74-.77-3.3-1.15-6.76-1.19-10.15-.13-13.31-.07-26.63-.04-39.94.01-6.96 1.67-13.38 6.44-18.71 5.44-6.09 12.4-8.36 20.35-7.85 2.39.15 4.83.54 7.1 1.29 7.73 2.54 11.86 8.33 13.48 16.01.62 2.96.85 6.03.9 9.06.13 7.1-.05 22.75-.05 22.75h-31.29v22.43c0 4.03 3.26 7.29 7.29 7.29 4.02 0 7.28-3.26 7.28-7.29v-11.53h16.81c0-.001.25 13.61-1.88 19.82zm-14.93-57.22c0-4.02-3.26-7.29-7.28-7.29-4.03 0-7.29 3.27-7.29 7.29v12.59h14.57v-12.59zm-62.07-4.01c-.84-2.09-2.64-3.13-4.9-3.35-2.65-.26-4.77.81-6.69 2.51-.77.67-1.12 1.67-1.12 1.67l.04 53.97v1.33s.46.62.53.7c1.56 1.69 3.38 3.03 5.71 3.51 3.84.79 6.55-.81 7.3-4.37.19-.89.3-1.81.3-2.72.02-16.07.05-32.13-.03-48.19-.01-1.701-.51-3.471-1.14-5.06zM303.887 94.99l-.005 90.244H287.16l.02-9.695c-1.849 1.821-3.427 3.522-5.161 5.05-3.074 2.708-6.556 4.727-10.629 5.524-6.253 1.223-11.579-.754-13.573-7.23-.664-2.157-1.065-4.482-1.082-6.734V94.99h16.596v68.821c0 .912.073 1.834.233 2.728.504 2.836 2.6 4.171 5.331 3.224 3.329-1.152 5.869-3.457 8.024-6.173.306-.388.251-1.112.251-1.681V94.99h16.717zm-138.309 15.682c-3.63-15.301-11.235-47.602-11.235-47.602h-19.029s14.62 48.487 21.158 70.111c.235.782.343 1.631.343 2.45l-.007 49.584h17.547l-.007-49.584c0-.819.108-1.668.343-2.45 6.538-21.624 21.158-70.111 21.158-70.111H176.82s-7.606 32.301-11.235 47.602h-.007zm53.174-17.941c-13.224 0-23.944 10.72-23.944 23.944v46.859c0 13.224 10.72 23.944 23.944 23.944 13.224 0 23.944-10.72 23.944-23.944v-46.859c.001-13.224-10.72-23.944-23.944-23.944zm6.91 71.749c0 3.81-3.1 6.909-6.909 6.909s-6.909-3.099-6.909-6.909v-48.752c0-3.81 3.1-6.909 6.909-6.909s6.909 3.1 6.909 6.909v48.752z"
              fill="#fff"></path>
    </symbol>
</svg>